<svg xmlns="http://www.w3.org/2000/svg" width="16" height="16" viewBox="0 0 21 21" fill="none" class="injected-svg" data-src="/icons/new/menu-scenes.svg" xmlns:xlink="http://www.w3.org/1999/xlink">
<path fill-rule="evenodd" clip-rule="evenodd" d="M15.4421 16.2218C14.9837 16.3294 14.5205 16.4092 14.055 16.4614C13.437 18.5828 11.7223 20.2197 9.5548 20.7281C8.00927 21.0906 6.40081 21.0906 4.85527 20.7281C2.58107 20.1946 0.805357 18.4189 0.271901 16.1447C-0.0906338 14.5992 -0.0906337 12.9907 0.271901 11.4452C0.78033 9.27769 2.41719 7.56299 4.53856 6.94503C4.59077 6.47949 4.67065 6.01627 4.77818 5.55785C5.38856 2.95571 7.42033 0.923944 10.0225 0.313566C11.8048 -0.104522 13.6598 -0.104522 15.4421 0.313566C18.0443 0.923945 20.0761 2.95572 20.6864 5.55786C21.1045 7.34023 21.1045 9.19516 20.6864 10.9775C20.0761 13.5797 18.0443 15.6114 15.4421 16.2218ZM10.0225 16.2218C10.7633 16.3956 11.5167 16.4972 12.2722 16.5265C11.7138 17.8156 10.5739 18.7859 9.17613 19.1137C7.87966 19.4178 6.53041 19.4178 5.23395 19.1137C3.57288 18.7241 2.2759 17.4271 1.88626 15.7661C1.58215 14.4696 1.58215 13.1203 1.88626 11.8239C2.21413 10.4261 3.18444 9.28622 4.47353 8.72776C4.49844 9.36967 4.57549 10.0101 4.70469 10.6425C4.72755 10.7545 4.75205 10.8661 4.77818 10.9775C5.38856 13.5797 7.42033 15.6114 10.0225 16.2218Z" fill="#949494"></path>
</svg>