<svg xmlns="http://www.w3.org/2000/svg" width="17" height="10" viewBox="0 0 17 10" fill="none">
    <path d="M16.4849 0.499615C16.6175 0.499615 16.7446 0.552294 16.8384 0.646062C16.9322 0.73983 16.9849 0.867007 16.9849 0.999615V8.99962C16.9849 9.13222 16.9322 9.2594 16.8384 9.35317C16.7446 9.44694 16.6175 9.49962 16.4849 9.49962C16.3523 9.49962 16.2251 9.44694 16.1313 9.35317C16.0375 9.2594 15.9849 9.13222 15.9849 8.99962V5.75262L9.71786 9.38862C9.17786 9.70162 8.48486 9.32262 8.48486 8.69162V5.75162L2.21786 9.38762C1.67786 9.70261 0.984863 9.32362 0.984863 8.69262V1.30762C0.984863 0.677616 1.67786 0.297615 2.21786 0.611615L8.48486 4.24762V1.30762C8.48486 0.677616 9.17786 0.297615 9.71786 0.611615L15.9849 4.24762V0.999615C15.9849 0.867007 16.0375 0.73983 16.1313 0.646062C16.2251 0.552294 16.3523 0.499615 16.4849 0.499615Z" fill="white"/>
</svg>