<svg xmlns="http://www.w3.org/2000/svg" width="14" height="15" viewBox="0 0 14 15" fill="none">
    <path d="M2.5 0C3.16304 0 3.79893 0.263392 4.26777 0.732233C4.73661 1.20107 5 1.83696 5 2.5V12.5C5 13.163 4.73661 13.7989 4.26777 14.2678C3.79893 14.7366 3.16304 15 2.5 15C1.83696 15 1.20107 14.7366 0.732233 14.2678C0.263392 13.7989 1.39726e-08 13.163 0 12.5V2.5C0 1.83696 0.263392 1.20107 0.732233 0.732233C1.20107 0.263392 1.83696 0 2.5 0ZM10.8333 0C11.4964 0 12.1323 0.263392 12.6011 0.732233C13.0699 1.20107 13.3333 1.83696 13.3333 2.5V12.5C13.3333 13.163 13.0699 13.7989 12.6011 14.2678C12.1323 14.7366 11.4964 15 10.8333 15C10.1703 15 9.53441 14.7366 9.06557 14.2678C8.59673 13.7989 8.33333 13.163 8.33333 12.5V2.5C8.33333 1.83696 8.59673 1.20107 9.06557 0.732233C9.53441 0.263392 10.1703 0 10.8333 0Z" fill="white"/>
</svg>