<svg xmlns="http://www.w3.org/2000/svg" width="15" height="16" viewBox="0 0 15 16" fill="none">
    <path d="M14.3585 6.97767L1.61372 0.605269C1.44179 0.525611 1.25266 0.49022 1.06355 0.502318C0.874451 0.514417 0.691375 0.573621 0.530994 0.674541C0.370613 0.775461 0.23802 0.914892 0.145286 1.08014C0.0525516 1.24539 0.00262075 1.43121 3.8537e-05 1.62068V14.36C-0.00156712 14.5545 0.0470273 14.7461 0.141125 14.9163C0.235223 15.0866 0.371642 15.2296 0.537197 15.3317C0.702751 15.4338 0.891842 15.4915 1.08619 15.4991C1.28055 15.5068 1.47358 15.4642 1.64665 15.3754L14.3585 9.003C14.5468 8.90848 14.7051 8.76346 14.8158 8.58414C14.9264 8.40483 14.985 8.19829 14.985 7.98759C14.985 7.7769 14.9264 7.57035 14.8158 7.39104C14.7051 7.21172 14.5468 7.0667 14.3585 6.97218V6.97767Z" fill="white"/>
</svg>