<svg xmlns="http://www.w3.org/2000/svg" width="16" height="10" viewBox="0 0 16 10" fill="none">
    <path d="M0.5 0.499615C0.367392 0.499615 0.240214 0.552294 0.146446 0.646062C0.0526781 0.73983 0 0.867007 0 0.999615V8.99962C0 9.13222 0.0526781 9.2594 0.146446 9.35317C0.240214 9.44694 0.367392 9.49962 0.5 9.49962C0.632608 9.49962 0.759786 9.44694 0.853554 9.35317C0.947322 9.2594 1 9.13222 1 8.99962V5.75262L7.267 9.38862C7.807 9.70162 8.5 9.32262 8.5 8.69162V5.75162L14.767 9.38762C15.307 9.70261 16 9.32362 16 8.69262V1.30762C16 0.677616 15.307 0.297615 14.767 0.611615L8.5 4.24762V1.30762C8.5 0.677616 7.807 0.297615 7.267 0.611615L1 4.24762V0.999615C1 0.867007 0.947322 0.73983 0.853554 0.646062C0.759786 0.552294 0.632608 0.499615 0.5 0.499615Z" fill="white"/>
</svg>