<svg xmlns="http://www.w3.org/2000/svg" width="16" height="16" viewBox="0 0 21 21" fill="none" class="injected-svg" data-src="/icons/new/menu-mixer.svg" xmlns:xlink="http://www.w3.org/1999/xlink">
    <path d="M14.1909 0C12.5311 0 11.1411 1.15543 10.7814 2.70586L0.954551 2.70586C0.42737 2.70586 6.19543e-06 3.13322 6.19543e-06 3.6604C6.19543e-06 4.18758 0.427371 4.61495 0.954551 4.61495H10.8722C11.3378 6.00129 12.6477 7 14.1909 7C15.7341 7 17.044 6.00129 17.5096 4.61495H20.0455C20.5726 4.61495 21 4.18758 21 3.6604C21 3.13322 20.5726 2.70586 20.0455 2.70586H17.6004C17.2407 1.15543 15.8508 0 14.1909 0Z" fill="#949494"></path>
    <path d="M5.28182 7C3.67197 7 2.31598 8.08687 1.90759 9.56685L0.92954 9.59249C0.40254 9.6063 -0.0134795 10.0447 0.000334292 10.5717C0.014148 11.0987 0.452564 11.5147 0.979564 11.5009L1.91979 11.4763C2.34241 12.9342 3.68765 14 5.28182 14C6.86684 14 8.20578 12.9464 8.63648 11.5013H20.0455C20.5726 11.5013 21 11.074 21 10.5468C21 10.0196 20.5726 9.59224 20.0455 9.59224H8.66295C8.26314 8.09932 6.90086 7 5.28182 7Z" fill="#949494"></path>
    <path d="M14.1909 14C12.6133 14 11.2794 15.0438 10.8423 16.4785H0.954551C0.427371 16.4785 6.80232e-06 16.9058 6.80232e-06 17.433C6.80232e-06 17.9602 0.427371 18.3876 0.954551 18.3876H10.8044C11.1973 19.8908 12.5646 21 14.1909 21C15.8172 21 17.1845 19.8908 17.5774 18.3875H20.0455C20.5726 18.3875 21 17.9602 21 17.433C21 16.9058 20.5726 16.4785 20.0455 16.4785H17.5395C17.1024 15.0438 15.7685 14 14.1909 14Z" fill="#949494"></path>
</svg>