<svg xmlns="http://www.w3.org/2000/svg" width="16" height="16" viewBox="0 0 21 21" fill="none" class="injected-svg" data-src="/icons/new/menu-templates.svg" xmlns:xlink="http://www.w3.org/1999/xlink">
<path d="M9.66238 0V6.30259H0.602927C1.55983 3.35462 3.98825 1.09486 7.03471 0.378681C7.9006 0.175122 8.77988 0.0488953 9.66238 0Z" fill="#949494"></path>
<path d="M11.3376 3.19319e-07V13.0184H20.7905C21.1234 11.0315 21.0596 8.99479 20.599 7.02706C19.8269 3.72823 17.2569 1.15248 13.9653 0.378681C13.0994 0.175123 12.2201 0.0488958 11.3376 3.19319e-07Z" fill="#949494"></path>
<path d="M20.3971 14.6973H11.3376V21C12.2201 20.9511 13.0994 20.8249 13.9653 20.6213C17.0118 19.9051 19.4402 17.6454 20.3971 14.6973Z" fill="#949494"></path>
<path d="M9.66238 21V7.98154H0.20952C-0.123394 9.96843 -0.0595734 12.0052 0.400983 13.973C1.17308 17.2718 3.74315 19.8475 7.03471 20.6213C7.9006 20.8249 8.77988 20.9511 9.66238 21Z" fill="#949494"></path>
</svg>