<svg xmlns="http://www.w3.org/2000/svg" width="35" height="35" viewBox="0 0 35 35" fill="none">
    <rect width="35" height="35" rx="8" fill="#121212" fill-opacity="0.75"/>
    <g clip-path="url(#clip0_1764_236)">
        <path d="M21.6667 25C24.6059 23.7108 26.6659 20.9092 26.6659 17.5C26.6659 14.0908 24.6059 11.2892 21.6667 10V11.6667C23.6559 12.8217 24.9992 15.0392 24.9992 17.5C24.9992 19.9608 23.6559 22.1783 21.6667 23.3333V25Z" fill="white"/>
        <path d="M21.6667 13.3335V21.6668C22.6875 20.7501 23.3333 18.976 23.3333 17.5001C23.3333 16.0243 22.6875 14.2501 21.6667 13.3335ZM11.6667 21.6668H13.9142L18.7042 24.8601C18.8298 24.9436 18.9757 24.9915 19.1263 24.9988C19.277 25.0062 19.4268 24.9726 19.56 24.9018C19.693 24.8306 19.8042 24.7246 19.8817 24.5951C19.9592 24.4657 20.0001 24.3177 20 24.1668V10.8335C19.9999 10.6827 19.959 10.5348 19.8815 10.4055C19.804 10.2762 19.6929 10.1704 19.56 10.0992C19.4271 10.0281 19.2774 9.9943 19.1268 10.0015C18.9763 10.0087 18.8305 10.0566 18.705 10.1401L13.9142 13.3335H11.6667C10.7475 13.3335 10 14.081 10 15.0001V20.0001C10 20.9193 10.7475 21.6668 11.6667 21.6668ZM11.6667 15.0001L12.5 16C12.5275 16 14.2175 14.9868 14.2442 14.9843C14.355 14.973 14.4626 14.9401 14.5608 14.8876C14.5825 14.8751 14.6083 14.8735 14.6292 14.8601L18.3333 12.3901L11.5 15.5L13.5 19L14.6292 20.1401C14.6083 20.126 14.5825 20.1235 14.5608 20.1126C14.4624 20.059 17 17 14.2425 20.016C14.2158 20.0135 15.7617 18.813 14.4283 19.8132L16 17L11.6667 15.0001Z" fill="white"/>
    </g>
    <defs>
        <clipPath id="clip0_1764_236">
            <rect width="16.6667" height="15" fill="white" transform="translate(10 10)"/>
        </clipPath>
    </defs>
</svg>